<?xml version="1.0" standalone="no"?>
<!DOCTYPE svg PUBLIC "-//W3C//DTD SVG 20010904//EN"
 "http://www.w3.org/TR/2001/REC-SVG-20010904/DTD/svg10.dtd">
<svg version="1.0" xmlns="http://www.w3.org/2000/svg"
 width="500.000000pt" height="40.000000pt" viewBox="0 0 500.000000 40.000000"
 preserveAspectRatio="xMidYMid meet">

<g transform="translate(0.000000,40.000000) scale(0.100000,-0.100000)"
fill="#fff" stroke="none">
<path d="M70 386 c0 -7 -56 -301 -65 -343 -4 -18 -1 -23 14 -23 23 0 24 2 46
128 10 56 21 102 24 102 3 0 28 -51 55 -112 27 -62 52 -116 55 -120 4 -4 31
49 61 117 38 87 56 120 61 108 3 -10 14 -64 24 -120 15 -87 21 -103 37 -103
24 0 23 4 -16 205 -26 137 -35 166 -43 150 -6 -11 -34 -75 -63 -143 -29 -68
-56 -120 -61 -115 -4 4 -33 66 -64 138 -54 125 -65 147 -65 131z"/>
<path d="M4265 239 c-106 -241 -99 -219 -74 -219 15 0 26 13 42 50 l21 50 78
0 77 0 22 -50 c15 -35 27 -50 40 -50 11 0 19 3 19 6 0 6 -138 330 -150 353 -4
8 -32 -43 -75 -140z m125 -75 c0 -2 -27 -4 -59 -4 l-60 0 31 70 31 71 29 -67
c15 -36 28 -68 28 -70z"/>
<path d="M4680 208 c0 -181 1 -188 20 -188 19 0 20 7 20 138 l1 137 139 -145
140 -145 0 188 c0 180 -1 187 -20 187 -19 0 -20 -7 -21 -137 l0 -138 -139 145
-140 145 0 -187z"/>
<path d="M600 200 l0 -180 90 0 c83 0 90 1 90 20 0 18 -7 20 -70 20 l-70 0 0
70 0 70 71 0 c62 0 70 2 67 18 -3 14 -16 18 -71 20 l-67 3 0 49 0 50 70 0 c63
0 70 2 70 20 0 19 -7 20 -90 20 l-90 0 0 -180z"/>
<path d="M960 360 c0 -17 6 -20 45 -20 l45 0 0 -160 c0 -153 1 -160 20 -160
19 0 20 7 20 159 l0 160 43 3 c29 2 42 8 42 18 0 12 -20 16 -107 18 -103 3
-108 2 -108 -18z"/>
<path d="M1360 200 c0 -172 1 -180 20 -180 17 0 19 8 22 83 l3 82 58 -82 c39
-55 65 -83 78 -83 10 0 19 3 19 6 0 3 -22 38 -50 76 -48 69 -53 88 -25 88 41
0 70 94 44 142 -14 27 -69 48 -124 48 l-45 0 0 -180z m124 124 c19 -18 21 -77
4 -92 -7 -6 -30 -13 -50 -17 l-38 -7 0 66 0 66 34 0 c19 0 42 -7 50 -16z"/>
<path d="M1855 366 c-63 -28 -105 -94 -105 -166 0 -180 238 -249 337 -99 77
117 -11 280 -151 279 -28 -1 -64 -7 -81 -14z m154 -44 c47 -35 66 -70 66 -122
0 -115 -131 -187 -224 -121 -97 69 -76 226 35 261 39 12 93 4 123 -18z"/>
<path d="M2320 200 c0 -173 1 -180 20 -180 18 0 20 7 20 80 l0 80 41 0 c76 0
125 84 88 152 -14 27 -69 48 -124 48 l-45 0 0 -180z m124 124 c9 -8 16 -31 16
-49 0 -37 -12 -48 -67 -60 l-33 -7 0 66 0 66 34 0 c19 0 42 -7 50 -16z"/>
<path d="M2769 351 c-151 -95 -84 -331 95 -331 76 0 138 37 172 102 17 32 18
105 3 145 -39 104 -173 146 -270 84z m179 -27 c57 -37 79 -131 47 -194 -18
-35 -59 -65 -102 -75 -99 -21 -196 90 -164 188 13 38 53 80 91 96 31 13 97 5
128 -15z"/>
<path d="M3250 200 l0 -180 70 0 c63 0 70 2 70 20 0 17 -7 20 -50 20 l-50 0 0
160 c0 153 -1 160 -20 160 -19 0 -20 -7 -20 -180z"/>
<path d="M3580 200 c0 -173 1 -180 20 -180 19 0 20 7 20 180 0 173 -1 180 -20
180 -19 0 -20 -7 -20 -180z"/>
<path d="M3800 360 c0 -17 7 -20 45 -20 l45 0 0 -160 c0 -153 1 -160 20 -160
19 0 20 7 20 160 l0 160 45 0 c38 0 45 3 45 20 0 19 -7 20 -110 20 -103 0
-110 -1 -110 -20z"/>
</g>
</svg>
