<?xml version="1.0" encoding="utf-8"?>
<!-- Generator: Adobe Illustrator 17.0.0, SVG Export Plug-In . SVG Version: 6.00 Build 0)  -->
<!DOCTYPE svg PUBLIC "-//W3C//DTD SVG 1.1//EN" "http://www.w3.org/Graphics/SVG/1.1/DTD/svg11.dtd">
<svg version="1.1" id="Capa_1" xmlns="http://www.w3.org/2000/svg" xmlns:xlink="http://www.w3.org/1999/xlink" x="0px" y="0px"
	 width="804.733px" height="400.26px" viewBox="0 0 804.733 400.26" enable-background="new 0 0 804.733 400.26"
	 xml:space="preserve">
<path fill="#fff" fill-rule="evenodd" clip-rule="evenodd"
d="M228.463,248.087h-17.579v25.376h18.421c4.014,0,7.655-1.151,10.239-3.045
	c3.179-2.358,4.786-5.453,4.786-9.165C244.33,253.329,238.279,248.087,228.463,248.087z M228.859,267.737H218.15v-13.916h10.678
	c4.611,0,7.965,3.179,7.965,7.361C236.793,264.719,233.319,267.737,228.859,267.737z M287.631,260.705
	c0-3.705-1.553-6.884-4.609-9.263c-3.312-2.59-7.961-4.126-13.155-4.126c-5.244,0-9.911,1.537-13.211,4.126
	c-3.042,2.379-4.609,5.558-4.609,9.263c0,3.762,1.567,6.976,4.57,9.348c3.26,2.554,7.965,4.105,13.249,4.105
	c5.232,0,9.919-1.551,13.183-4.105C286.078,267.681,287.631,264.466,287.631,260.705z M280.189,260.705
	c0,4.625-3.981,7.769-10.321,7.769c-6.437,0-10.411-3.144-10.411-7.769c0-4.512,4.046-7.705,10.411-7.705
	C276.123,253,280.189,256.214,280.189,260.705z M326.166,260.228c1.477-1.326,2.14-2.723,2.14-4.583
	c0-1.614-0.663-3.249-1.854-4.505c-1.809-1.902-4.63-3.053-7.668-3.053h-21.955v25.376h22.643c6.277,0,10.163-3.179,10.163-7.551
	C329.635,263.554,328.517,261.744,326.166,260.228z M318.563,257.961h-14.464v-4.141h14.299c1.53,0,2.609,0.962,2.609,2.162
	C321.007,257.14,320.058,257.961,318.563,257.961z M319.693,267.737h-15.594v-4.463h15.504c1.61,0,2.683,0.94,2.683,2.14
	C322.286,266.747,321.174,267.737,319.693,267.737z M338.532,273.463v-25.376h7.253v19.65h19.511v5.726H338.532z M372.876,273.463
	v-25.376h27.553v5.733h-20.283v4.141h13.779v5.733h-13.779v4.042h21.278v5.726H372.876z M456.473,273.463v-16.758h-0.118
	l-11.499,13.713l-11.563-13.713h-0.123v16.758h-7.256v-25.376h8.405l10.481,12.618l10.52-12.618h8.421v25.376H456.473z
	 M506.328,273.463l-14.07-25.376h-8.239l-14.067,25.376h7.453l2.933-5.242h15.604l2.93,5.242H506.328z M492.725,262.495h-9.158
	l4.574-8.379L492.725,262.495z M512.224,273.463v-25.376h7.246v19.65h19.526v5.726H512.224z M556.507,253.821v19.643h-7.248v-19.643
	h-12.091v-5.733h31.397v5.733H556.507z M603.024,273.463l-14.055-25.376h-8.242l-14.072,25.376h7.465l2.923-5.242h15.599
	l2.935,5.242H603.024z M589.425,262.495h-9.162l4.584-8.379L589.425,262.495z M612.138,163.408c0,0,8.112-5.607,12.7-7.383
	c2.018-0.8,3.251-1.046,4.679-0.505c3.425,1.249,7.181,4.246,9.995,7.271c1.495,1.607,2.514,3.544,2.514,7.881l0.025,30.109
	c0,4.73,4.065,5.235,8.214,4.583c-3.932,5.656-10.816,11.783-12.274,11.783c-1.646,0-11.574-6.506-11.574-16.127
	c0-1.032,0-26.081,0-26.081c0-4.007-4.223-9.109-7.142-9.109c-1.665,0-6.081,2.21-6.081,5.691l0.023,29.26
	c0,4.73,4.019,5.235,8.186,4.583c-3.904,5.656-10.802,11.783-12.276,11.783c-1.644,0-11.493-6.506-11.493-16.127
	c0-1.032-0.037-26.081-0.037-26.081c0-3.909-4.228-9.235-7.174-9.235c-2.056,0-6.049,2.625-6.049,5.677l0.013,29.401
	c0,4.73,4.045,5.235,8.191,4.583c-3.907,5.656-10.805,11.783-12.248,11.783c-1.661,0-11.603-6.506-11.603-16.127l-0.007-26.369
	c0-7.853-6.921-7.228-6.921-7.228s9.049-9.095,10.432-10.33c1.391-1.207,2.759-0.723,4.579-0.281
	c4.651,1.109,7.339,6.463,7.339,6.463s7.948-5.474,12.523-7.249c2.021-0.8,3.011-0.884,4.505-0.428
	C604.473,156.685,609.192,160.166,612.138,163.408z M526.204,163.408c0,0,8.121-5.607,12.702-7.383
	c2.018-0.8,3.249-1.046,4.704-0.505c3.4,1.249,7.151,4.246,9.969,7.271c1.505,1.607,2.516,3.544,2.516,7.881l0.035,30.109
	c0,4.73,4.042,5.235,8.188,4.583c-3.889,5.656-10.8,11.783-12.255,11.783c-1.653,0-11.601-6.506-11.601-16.127
	c0-1.032,0.041-26.081,0.041-26.081c0-4.007-4.235-9.109-7.174-9.109c-1.649,0-6.067,2.21-6.067,5.691l0.018,29.26
	c0,4.73,4.035,5.235,8.204,4.583c-3.919,5.656-10.813,11.783-12.274,11.783c-1.647,0-11.522-6.506-11.522-16.127
	c0-1.032-0.009-26.081-0.009-26.081c0-3.909-4.225-9.235-7.177-9.235c-2.052,0-6.065,2.625-6.065,5.677l0.014,29.401
	c0,4.73,4.035,5.235,8.204,4.583c-3.923,5.656-10.814,11.783-12.279,11.783c-1.641,0-11.567-6.506-11.567-16.127V174.65
	c0-7.853-6.947-7.228-6.947-7.228s9.063-9.095,10.426-10.33c1.388-1.207,2.77-0.723,4.602-0.281
	c4.639,1.109,7.326,6.463,7.326,6.463s7.947-5.474,12.527-7.249c2.016-0.8,3-0.884,4.49-0.428
	C518.541,156.685,523.273,160.166,526.204,163.408z M418.421,150.839c0-8.499-7.267-16.583-17.516-16.583
	c-8.423,0-35.299,0.014-39.855,0.014c-7.474,0-14.22-3.909-14.22-3.909s3.9,7.558,8.465,13.221c1.384,1.692,4.675,4.274,8.442,4.274
	c2.753,0,5.005-0.014,7.686-0.014c0.84,0,1.444,0.477,0.356,1.537c-1.313,1.291-11.15,9.698-11.15,9.698v43.654
	c0,2.793-0.442,3.824-1.825,4.695c-7.797,4.884-10.851,10.765-10.851,10.765s4.388-3.74,10.626-3.74
	c2.312,0,4.772,0.021,8.726,1.754c6.948,3.102,13.541,6.203,16.804,7.481c2.656,1.039,4.94,1.172,8.37,0.197
	c2.918-0.814,23.034-12.878,24.404-14.365c1.351-1.467,1.558-3.053,1.558-6.211L418.421,150.839z M401.459,206.662
	c0,2.975-2.646,5.607-6.312,4.126c-5.127-2.105-25.467-10.632-25.467-10.632s4.814-3.881,6.811-5.979
	c0.512-0.519,0.865-1.537,0.865-2.758v-43.492h17.288c3.356,0,6.816,2.274,6.816,6.877V206.662z M453.987,173.914
	c-12.032,0.891-16.583,9.386-16.583,18.018c0,7.263,4.323,10.239,4.323,10.239c3.219-2.456,10.819-7.958,11.644-8.505
	c0.837-0.533,0.595-1.965,0.595-3.397L453.987,173.914z M438.352,154.229c0,0,1.916,2.527,6.344,2.527h18.413
	c3.195,0,6.441,1.347,6.441,5.305v36.994c0,4.997,4.263,5.832,8.842,4.814c-3.274,5.404-9.197,12.912-12.277,12.912
	c-4.251,0-12.127-6.821-12.127-15.692c0,0-14.642,12.19-18.915,15.439c-1.037,0.779-1.862,0.905-2.672-0.077
	c-2.335-2.891-9.551-11.509-9.551-23.165c0-17.632,13.151-23.562,31.138-24.067c0-2.955-0.702-5.151-4.528-5.151
	c-6.521,0-7.774,0.596-12.535,0.596c-6.021,0-10.889-5.474-10.889-5.474L438.352,154.229z M339.76,175.268
	c0,0,9.407,0.435,17.295-0.674l-6.609,13.8c0,0-11.62,0.028-17.257,1.123L339.76,175.268z M211.817,205.721
	c-9.126,11.586-19.137,18.814-19.137,18.814s-9.56-7.081-15.586-11.558c-2.625-1.944-6.393-3.411-10.039-3.411
	c-6.153,0-10.691,3.768-10.691,3.768s2.13-5.424,10.07-9.979c1.614-0.926,1.811-2.484,1.811-5.284V154.98
	c0,0,10.105-8.59,11.147-9.705c1.063-1.109,0.716-1.558-0.365-1.558c-2.663,0-4.898,0.028-7.667,0.028
	c-3.765,0-7.06-2.505-8.416-4.183c-4.595-5.677-8.476-13.228-8.476-13.228s6.751,3.34,14.232,3.34
	c2.112,0,16.288,0.014,16.288,0.014l-0.007,56.433c0,1.207-0.382,2.204-0.868,2.751c-1.788,2.056-8.188,8.639-8.188,8.639
	s4.754-2.519,10.109,1.397c2.563,1.881,6.681,5.221,9.033,6.948c1.788,1.305,4.286-0.596,7.774-4.709
	c4.04-4.786,6.246-11.088,6.246-18.59c0-16.684,0-35.499,0-38.222c0-5.067-5.586-6.203-5.586-6.203l13.53-9.495
	c0,0,9.014,2.372,9.014,11.509c0,0,0,13.299,0,24.716C226.045,180.837,219.805,195.609,211.817,205.721z M329.577,126.102
	c0,0-1.14,49.657-0.023,73.703c0.282,6.049,5.651,5.642,8.753,5.2c-2.835,4.119-10.612,12.141-14.016,12.141
	c-2.744,0-10.956-7.6-10.956-18.302v-59.668L329.577,126.102z M300.17,126.102c0,0-1.112,49.657,0,73.703
	c0.275,6.049,5.653,5.642,8.76,5.2c-2.833,4.119-10.606,12.141-14.051,12.141c-2.705,0-10.927-7.6-10.927-18.302l-0.016-59.668
	L300.17,126.102z M274.73,166.987c-0.258-3.053-5.681-7.242-12.874-11.39c-2.663-1.537-5.519-2.344-9.793-0.056
	c-9.19,4.961-19.944,12.526-20.337,16.744c-0.239,2.541-0.442,7.19-0.442,15.59c0,10,0.158,12.653,0.442,15.411
	c0.337,3.544,7.547,9.804,12.579,12.407c3.204,1.649,5.842,1.979,8.979,0.624c9.119-3.951,21.078-12.337,21.446-17.741
	c0.186-2.653,0.411-6.737,0.411-16.948C275.141,173.317,274.916,169.127,274.73,166.987z M259.754,202.879
	c0,2.716-1.467,3.866-3.51,3.866c-3.895,0-9.437-5.39-9.437-10.603l0.011-28.566c0-2.695,2.095-5.292,4.147-5.292
	c3.617,0,8.793,4.548,8.793,10.26L259.754,202.879z"/>
</svg>
