<svg id="Capa_1" data-name="Capa 1" xmlns="http://www.w3.org/2000/svg" viewBox="0 0 297.17 285.29"><defs><style>.cls-1{fill:#f3e600;}.cls-2{fill:#a6529a;}.cls-3{fill:#6ec6d9;}.cls-4{fill:#e52421;}.cls-5{fill:#2a4b9b;}.cls-6{fill:#66b32e;}.cls-7{fill:none;stroke:#fff;stroke-miterlimit:10;stroke-width:6px;}</style></defs><path d="M198.53,192.59s5.7-51.94-48.53-84c0,0-47.87,29.66-47.87,83.61,0,0,40.7,29.64,96.4.44" transform="translate(-1.42 -7.35)"/><path class="cls-1" d="M53.28,108.71s40-30.61,97,0c0,0-48.82,24.18-48.82,83C101.5,191.69,53.28,162.8,53.28,108.71Z" transform="translate(-1.42 -7.35)"/><path class="cls-2" d="M246,107.38s6.46,50-48.58,84c0,0,3.51-54.37-47.39-83.8C150,107.59,199.15,80.3,246,107.38Z" transform="translate(-1.42 -7.35)"/><path class="cls-3" d="M150.72,276.15s-46.55-19.34-48.59-84c0,0,45.38,30.15,96.27.7C198.4,192.85,197.55,249.06,150.72,276.15Z" transform="translate(-1.42 -7.35)"/><path class="cls-4" d="M53.27,107.41s1.21-88.6,97-97.06c0,0,91.06-.5,97.06,97.06l-5.28-2s-17.23-9.92-48-9.92-43.78,13.18-43.78,13.18-22-13.18-48.85-13.18S53.27,107.41,53.27,107.41Z" transform="translate(-1.42 -7.35)"/><path class="cls-5" d="M248,109.64s76.48,46.54,34.52,133.12c0,0-46.32,78.39-133.12,33.45l4.4-3.53s16.82-7,32.62-33.39,11.71-47,11.71-47,22.63-12.16,36.39-35.16S248,109.64,248,109.64Z" transform="translate(-1.42 -7.35)"/><path class="cls-6" d="M148.6,276.56s-77.51,43-132.45-36c0,0-45.68-78.77,36-132.45l.92,5.56s-1.23,17.07,14.06,43.78,34.36,34.25,34.36,34.25-.47,25.68,12.84,48.94S148.6,276.56,148.6,276.56Z" transform="translate(-1.42 -7.35)"/><circle class="cls-7" cx="148.91" cy="100.06" r="97.06"/><circle class="cls-7" cx="100.06" cy="185.23" r="97.06"/><circle class="cls-7" cx="197.11" cy="185.23" r="97.06"/><path d="M198.53,192.59" transform="translate(-1.42 -7.35)"/></svg>